<?xml version="1.0" encoding="UTF-8" standalone="no"?>
<svg
   xmlns:dc="http://purl.org/dc/elements/1.1/"
   xmlns:cc="http://creativecommons.org/ns#"
   xmlns:rdf="http://www.w3.org/1999/02/22-rdf-syntax-ns#"
   xmlns:svg="http://www.w3.org/2000/svg"
   xmlns="http://www.w3.org/2000/svg"
   xmlns:sodipodi="http://sodipodi.sourceforge.net/DTD/sodipodi-0.dtd"
   xmlns:inkscape="http://www.inkscape.org/namespaces/inkscape"
   inkscape:version="1.0beta2 (2b71d25, 2019-12-03)"
   sodipodi:docname="bgw_black.svg"
   xml:space="preserve"
   style="enable-background:new 0 0 28.34646 28.34646;"
   viewBox="0 0 28.34646 28.34646"
   height="28.34646px"
   width="28.34646px"
   y="0px"
   x="0px"
   id="Layer_1"
   version="1.0"><metadata
   id="metadata31"><rdf:RDF><cc:Work
       rdf:about=""><dc:format>image/svg+xml</dc:format><dc:type
         rdf:resource="http://purl.org/dc/dcmitype/StillImage" /></cc:Work></rdf:RDF></metadata><defs
   id="defs29" /><sodipodi:namedview
   inkscape:current-layer="Layer_1"
   inkscape:window-maximized="0"
   inkscape:window-y="26"
   inkscape:window-x="61"
   inkscape:cy="13.566055"
   inkscape:cx="14.573713"
   inkscape:zoom="9.4431162"
   showgrid="false"
   id="namedview27"
   inkscape:window-height="718"
   inkscape:window-width="1217"
   inkscape:pageshadow="2"
   inkscape:pageopacity="0"
   guidetolerance="10"
   gridtolerance="10"
   objecttolerance="10"
   borderopacity="1"
   inkscape:document-rotation="0"
   bordercolor="#666666"
   pagecolor="#ffffff" />
<style
   id="style10"
   type="text/css">
	.st0{fill:#FFFFFF;}
</style>
<path
   style="fill:#1a1a1a"
   id="path12"
   d="M0,23.24267c0-0.35139,0-0.70277,0-1.05416c0.58537-1.98571,2.44526-5.53341,2.10732-7.60192  c-3.28456-2.13705,1.74225-5.63178,4.29041-6.40789C7.2192,7.9285,8.06816,8.0911,8.86612,8.36237  c3.45945,1.17602,6.82613-0.17282,10.07331-1.42143c3.98913-1.5339,2.4264-1.33734,4.4069-5.27964  c0.3333-0.66344,1.27232-0.89448,1.53479-0.01235c0.15163,0.50959,0.18086,0.5555,0.47897,0.75253  c1.10165,0.20784,0.73162,0.05335,1.29041,1.30567c0.32235,0.72241,0.3299,1.48703,0.18346,2.24948  c-0.12823,0.66767,1.11646,2.21822,1.27975,2.84373c0.05119,0.19608,0.11906,0.38859,0.16358,0.58474  c-0.06366,1.04574-0.18722,2.08476-0.37066,3.11703c0.00382,1.2573,1.0122,3.48136-0.24177,4.52499  c-2.06946,1.72232-2.77948,0.7804-4.29728-0.60396c-0.72479-0.66107-1.50317-1.19994-2.4211-1.56365  c-1.87495-0.74289-3.27147-1.36643-3.1115,2.41759c0.03646,0.86242,0.27364,1.70714,0.20993,2.57773  c-0.03834,0.52387,0.23338,0.90444,0.62444,1.20749c0.11598,0.08987,2.15906,2.91396,2.27958,3.02234  c0.5286,0.47532,0.92801,1.43117,0.10373,1.85688c-0.28259,0.49617-0.63589,0.93481-1.0599,1.31593  c-0.13544,0.02093-0.26666,0.01467-0.36924,0.12075c-0.56762,0-1.13524,0-1.70287,0  c-0.61481-0.41191-2.55047-1.90828-2.84553-2.57628c-0.24455-0.55364-0.46898-1.10422-0.38016-1.74934  c0.14519-1.05455-0.71389-5.4383-2.34185-5.13399c-3.80756,0.71172-8.90277-0.80002-4.8731,4.96883  c0.4931,0.70592,0.26884,1.27952-0.56973,1.47183c-0.35464,0.08134-0.71602,0.1349-1.08254,0.13988  c-0.17329,0.00236-0.35445-0.02182-0.51441,0.11355c-0.16694,0.22634-0.02459,0.52537-0.15489,0.78732  c-0.90341,0.89129-2.02108,0.89635-3.12021,0.54198C0.93274,25.58556,0.67264,23.98563,0,23.24267z"
   class="st0" />
<g
   id="g14">
</g>
<g
   id="g16">
</g>
<g
   id="g18">
</g>
<g
   id="g20">
</g>
<g
   id="g22">
</g>
<g
   id="g24">
</g>
</svg>
